HIERARCHY
ROOT Hips
{
  OFFSET -187.679 86.5976 -156.378
  CHANNELS 6 Xposition Yposition Zposition Zrotation Xrotation Yrotation
  JOINT LeftUpLeg
  {
    OFFSET 8.64259 1.95398 -2.38835
    CHANNELS 3 Zrotation Xrotation Yrotation
    JOINT LeftLeg
    {
      OFFSET 43.7702 0 0
      CHANNELS 3 Zrotation Xrotation Yrotation
      JOINT LeftFoot
      {
        OFFSET 40.6238 0 0
        CHANNELS 3 Zrotation Xrotation Yrotation
        JOINT LeftToeBase
        {
          OFFSET 12.7242 0 0
          CHANNELS 3 Zrotation Xrotation Yrotation
          End Site
          {
            OFFSET 0 0 0
          }
        }
      }
    }
  }
  JOINT RightUpLeg
  {
    OFFSET -8.2249 1.95398 -2.59336
    CHANNELS 3 Zrotation Xrotation Yrotation
    JOINT RightLeg
    {
      OFFSET 43.5653 0 0
      CHANNELS 3 Zrotation Xrotation Yrotation
      JOINT RightFoot
      {
        OFFSET 40.6238 0 0
        CHANNELS 3 Zrotation Xrotation Yrotation
        JOINT RightToeBase
        {
          OFFSET 12.7242 0 0
          CHANNELS 3 Zrotation Xrotation Yrotation
          End Site
          {
            OFFSET 0 0 0
          }
        }
      }
    }
  }
  JOINT Spine
  {
    OFFSET 0.165834 0.87714 6.61349
    CHANNELS 3 Zrotation Xrotation Yrotation
    JOINT Spine1
    {
      OFFSET 7.38963 1.71661e-005 0
      CHANNELS 3 Zrotation Xrotation Yrotation
      JOINT Spine2
      {
        OFFSET 11.9445 1.14441e-005 0
        CHANNELS 3 Zrotation Xrotation Yrotation
        JOINT Spine3
        {
          OFFSET 14.7254 4.19617e-005 0
          CHANNELS 3 Zrotation Xrotation Yrotation
          JOINT Spine4
          {
            OFFSET 10.9679 0 0
            CHANNELS 3 Zrotation Xrotation Yrotation
            JOINT RightShoulder
            {
              OFFSET 2.46616 -1.6653 3.69651
              CHANNELS 3 Zrotation Xrotation Yrotation
              JOINT RightArm
              {
                OFFSET 13.0012 0 0
                CHANNELS 3 Zrotation Xrotation Yrotation
                JOINT RightForeArm
                {
                  OFFSET 28.7848 1.52588e-005 0
                  CHANNELS 3 Zrotation Xrotation Yrotation
                  JOINT RightHand
                  {
                    OFFSET 26.5688 1.52588e-005 0
                    CHANNELS 3 Zrotation Xrotation Yrotation
                    End Site
                    {
                      OFFSET 0 0 0
                    }
                  }
                }
              }
            }
            JOINT LeftShoulder
            {
              OFFSET 2.38034 -1.29275 -3.7523
              CHANNELS 3 Zrotation Xrotation Yrotation
              JOINT LeftArm
              {
                OFFSET 16.3182 6.10352e-005 0
                CHANNELS 3 Zrotation Xrotation Yrotation
                JOINT LeftForeArm
                {
                  OFFSET 27.0901 0 0
                  CHANNELS 3 Zrotation Xrotation Yrotation
                  JOINT LeftHand
                  {
                    OFFSET 24.5451 1.52588e-005 0
                    CHANNELS 3 Zrotation Xrotation Yrotation
                    End Site
                    {
                      OFFSET 0 0 0
                    }
                  }
                }
              }
            }
            JOINT Neck
            {
              OFFSET 5.0226 -0.0266342 0
              CHANNELS 3 Zrotation Xrotation Yrotation
              JOINT Head
              {
                OFFSET 6.69363 2.86102e-005 0
                CHANNELS 3 Zrotation Xrotation Yrotation
                End Site
                {
                  OFFSET 0 0 0
                }
              }
            }
          }
        }
      }
    }
  }
}
MOTION
Frames:	12
Frame Time:	0.0416667
260.588 95.6236 243.314 -92.1481 43.8489 -92.1104 -176.914 29.7352 84.4369 -37.9107 27.5639 3.33083 61.3535 0.427776 -1.16148 18.7359 -5.89231 4.36301 162.661 -22.5548 83.186 -79.1496 8.91815 1.27444 63.3773 -3.05956 -3.18261 100.433 11.7848 3.54025 2.39975 8.1389 -88.4459 10.5334 5.49343 2.59797 -1.12806 5.60239 2.35314 -23.7089 4.45897 4.13017 -3.69629 4.45897 4.13018 91.2781 -39.1049 -101.263 25.229 -12.5637 -7.92894 -45.6282 -6.36547 -79.8745 -3.19081 -0.189745 2.35484 -87.9955 -40.2389 79.97 -14.2773 26.92 24.6528 38.006 -34.4984 -114.86 1.17853 0.0389954 -0.132634 22.4503 -13.1555 -16.6279 4.35987 -6.73569 6.88591 
251.244 93.2219 235.234 -92.8815 39.9843 -95.7181 -174.242 29.889 79.7313 -54.5869 30.0311 1.15348 70.7281 5.81518 2.08863 20.2762 -4.0879 1.73551 158.427 -9.14416 79.214 -100.966 13.0705 -1.29488 67.2013 -4.85566 -2.08137 104.26 10.9569 -0.35156 1.24865 8.36684 -87.8414 10.0678 3.47098 4.00137 -1.60407 3.64364 3.84489 -24.1067 2.10947 4.85791 -4.09407 2.10946 4.8579 90.6802 -43.0389 -101.246 32.7515 -18.1814 2.85245 -48.612 -0.741873 -78.6423 -16.0473 -1.70069 7.74516 -91.4268 -47.0219 76.0966 -0.992295 15.7901 0.517179 34.0677 -31.3478 -119.958 3.4418 0.374284 4.61971 24.5477 -12.6425 -19.8142 5.42128 -4.72676 7.001 
242.334 91.3151 228.368 -93.0158 36.6791 -100.623 -173.7 23.4611 74.7517 -59.116 30.3002 0.555615 77.3994 9.74427 2.52174 23.4114 -2.19912 0.327975 160.491 11.0861 77.58 -120.163 -0.914129 -4.99448 57.8318 0.397181 -11.4474 107.165 7.81586 -8.3915 0.0736595 8.59617 -87.2034 9.61143 1.40876 5.43168 -2.06987 1.64608 5.3647 -24.5137 -0.285925 5.60362 -4.50106 -0.285911 5.60362 93.739 -39.7519 -96.7528 46.3125 -21.6927 15.9356 -49.4547 0.0458133 -74.22 -15.8901 -1.23327 4.11256 -91.7995 -45.2271 75.0393 -1.29879 8.65578 -28.8349 48.501 -34.5438 -112.68 0.568493 0.278718 6.68995 29.1837 -11.2419 -19.4152 4.05893 -2.93943 3.91398 
233.303 91.0608 220.092 -91.3971 37.6058 -99.4442 -173.426 15.4406 79.3426 -58.9623 27.2527 1.26461 84.8098 11.4587 -2.17087 22.8358 -1.93064 -1.09628 163.386 34.2693 87.6913 -127.441 -26.4204 -7.87105 32.8418 22.0153 -30.9612 108.238 3.23916 -19.5431 -0.796414 8.40908 -87.5876 10.0385 -0.489741 4.82967 -1.64137 -0.276936 4.84649 -24.1136 -1.91717 4.46058 -4.10096 -1.91716 4.46057 96.4281 -35.4742 -92.726 54.1683 -28.1914 30.2207 -55.6614 1.50282 -74.9338 -10.447 -0.688493 2.6163 -91.1458 -37.6283 73.9161 -7.0485 -2.71759 -47.8872 43.7366 -30.7591 -115.856 -0.204037 0.109832 3.50075 32.1458 -6.28643 -15.7957 1.41234 0.687527 1.61655 
223.375 92.7089 210.469 -89.9821 39.7623 -95.418 -172.216 2.3279 85.9852 -49.1705 29.9507 2.83213 85.726 12.817 -0.168569 19.315 0.351456 -9.88776 167.227 41.0545 96.8908 -121.233 -20.5359 -6.63885 50.2684 11.935 -41.3349 69.8765 4.86688 -12.2639 -1.78086 8.17572 -88.4285 10.556 -2.8251 3.37631 -1.11661 -2.67387 3.49724 -23.6566 -3.7089 2.37137 -3.64397 -3.7089 2.37136 96.7295 -32.0242 -92.7263 57.6144 -33.0058 43.4284 -58.1156 5.20489 -75.3418 -10.28 -0.60274 1.90319 -87.2951 -28.3409 78.2055 -12.2373 -14.0882 -57.9079 34.2576 -26.4988 -123.444 1.81687 0.236639 4.6366 34.6114 0.746653 -11.6433 -0.379324 5.80037 -0.882522 
212.414 94.817 200.589 -90.5007 41.4897 -91.0797 -171.439 -13.6439 87.943 -32.4188 33.8276 5.84877 70.1439 6.32766 3.99022 34.7213 4.28882 -8.05747 174.855 41.4591 97.4638 -105.084 2.33503 -4.24694 75.2869 -5.9344 -20.2868 27.9035 -0.870337 3.55063 -2.50292 8.227 -89.2022 10.4689 -4.61971 1.99681 -1.19562 -4.52733 2.19848 -23.7957 -5.00583 0.512969 -3.78308 -5.00584 0.512961 97.9055 -28.9633 -90.8012 56.4426 -32.0674 49.5019 -59.1661 6.37447 -75.7359 -7.2858 -0.354584 0.662851 -83.9313 -16.0687 81.9942 -16.7885 -16.6904 -58.9124 32.4685 -25.9128 -126.409 3.47612 0.294402 3.19703 37.5368 6.60484 -9.41884 -3.00768 10.5812 -1.65827 
201.378 97.614 190.141 -87.4962 42.992 -88.3073 -169.516 -24.673 93.6349 -17.0424 37.698 10.0493 54.4608 -2.12831 1.89618 26.6194 -0.661422 -2.0372 178.657 44.2108 99.7735 -82.4976 18.3851 -2.13925 79.7184 -6.0542 0.694928 20.5359 -3.6756 6.56414 -2.92642 7.99676 -90.3495 10.8969 -5.98833 -0.125589 -0.760079 -5.98802 0.139043 -23.3987 -5.67277 -1.92539 -3.38606 -5.67278 -1.9254 99.521 -20.7942 -88.5095 59.069 -31.8025 52.9749 -60.1819 6.99085 -74.8358 -9.3054 -0.740773 2.41314 -82.37 -7.48805 83.1163 -17.8105 -17.0731 -54.864 32.4506 -25.1957 -126.512 3.80376 0.302669 2.7416 40.3293 11.9014 -5.12271 -8.71824 13.7656 -1.53092 
190.603 99.2286 179.673 -83.2006 43.8096 -88.2857 -166.703 -29.1976 97.304 -12.7153 31.2892 9.26951 53.4431 -2.30587 0.698847 20.5268 -4.8224 3.84818 -179.805 43.987 100.615 -56.2144 16.9089 -0.129183 74.995 -5.29255 0.74136 23.3473 -2.34332 4.38233 -3.03922 7.71862 -91.2366 11.3968 -6.62426 -1.79513 -0.25808 -6.6968 -1.50065 -22.8928 -5.77789 -3.70829 -2.88014 -5.77789 -3.70829 100.181 -13.5579 -87.639 63.9831 -29.6041 55.9954 -58.3293 10.207 -76.0926 -14.686 -0.902796 2.74586 -81.7138 -1.75802 83.3728 -15.1562 -15.5678 -55.8906 34.0565 -23.5581 -121.953 4.15841 0.246726 1.82141 36.1486 15.3377 -4.22144 -7.25317 16.3278 1.79181 
179.969 99.152 169.198 -84.0463 42.4137 -88.6777 -162.367 -34.5925 101.966 -14.243 25.3318 5.8064 55.004 -0.861626 0.449916 22.63 -3.90749 3.82157 -179.229 36.4977 97.4263 -27.8697 11.1323 1.0772 67.3779 -4.41246 -0.950451 24.643 -1.34951 2.17245 -3.31087 7.71545 -91.1897 11.4054 -7.14276 -1.6492 -0.246512 -7.20838 -1.33169 -22.9035 -6.31595 -3.72691 -2.89083 -6.31596 -3.72691 100.462 -15.257 -86.7262 62.1683 -27.1255 55.9589 -56.7715 14.2944 -80.7322 -5.72185 0.0848453 -7.40691 -81.4192 0.0876924 83.6535 -8.54507 -9.04207 -57.2388 36.3127 -23.5478 -115.866 -1.54558 -0.063642 -0.987779 32.2201 14.8849 -7.98919 -6.13956 17.2561 4.85867 
169.209 97.9979 158.887 -89.2877 39.2593 -87.7693 -157.268 -38.8787 108.361 -24.622 23.745 5.74526 57.4223 0.706274 0.815864 26.4995 -2.42949 4.44059 179.082 25.2704 93.7318 -6.69604 8.06654 1.39384 62.2592 -3.94065 0.178449 25.6595 -1.79112 4.09742 -3.67695 7.94446 -90.8144 10.9735 -7.69711 -0.889249 -0.674613 -7.72873 -0.547585 -23.369 -7.0723 -3.17255 -3.35632 -7.0723 -3.17257 101.233 -18.4508 -84.4802 53.2852 -22.6694 50.2054 -71.832 13.2902 -84.1646 -7.03858 -0.363007 1.21459 -82.1258 -2.69123 82.3753 -5.04292 -3.63318 -54.782 39.539 -25.8893 -113.521 -1.65593 -0.0748138 -1.91475 28.5248 14.0569 -9.42828 -4.27286 16.8705 6.83835 
159.203 95.807 148.512 -91.9061 37.1646 -88.6978 -156.484 -35.9913 110.405 -44.7736 21.821 9.36396 58.7783 1.2732 3.79602 23.5123 -2.39091 0.881316 177.009 28.147 91.0867 -18.6571 3.92318 1.77973 60.0185 -1.68621 -1.19486 25.2991 -0.0978172 -1.31379 -3.69168 7.87603 -90.4628 11.1367 -7.56293 -0.185536 -0.512106 -7.56372 0.149443 -23.2111 -7.1557 -2.46172 -3.19845 -7.15569 -2.46173 102.217 -24.369 -81.959 45.567 -17.3258 43.3648 -65.5929 17.6831 -90.6193 -6.75179 -0.282829 -0.298146 -83.5039 -8.84573 80.6222 -2.11192 3.49113 -50.0263 37.115 -26.602 -113.416 0.824462 -0.0322691 -2.44718 24.3324 13.0883 -8.51493 -1.30762 15.5462 8.20777 
149.567 93.0163 138.539 -94.2561 36.8703 -87.096 -157.95 -30.6892 111.219 -65.0145 17.801 11.6272 60.2187 2.31525 6.15219 22.2999 -1.95778 -1.47949 172.413 35.1597 91.5376 -46.8365 -1.9331 4.16755 63.055 -1.01364 -3.17667 15.3061 -2.30073 0.273633 -3.53768 7.93967 -90.5496 10.999 -7.29713 -0.394069 -0.651408 -7.30736 -0.0707816 -23.3363 -6.83978 -2.57923 -3.32362 -6.83979 -2.57923 99.9671 -35.5774 -86.0268 29.7143 -8.37716 34.6796 -61.0215 21.1425 -99.5136 -6.61338 -0.440502 2.70915 -85.9552 -21.2134 78.7714 0.186909 10.2677 -38.5882 34.3145 -27.9013 -115.526 0.833487 -0.0473219 -2.87212 21.3287 13.717 -3.08549 3.12521 14.4292 5.76887 
